<svg xmlns="http://www.w3.org/2000/svg" xmlns:xlink="http://www.w3.org/1999/xlink" width="320" height="175" viewBox="0 0 320 175">
    <defs>
        <path id="a" d="M55.476 25.937H52.29a7.644 7.644 0 0 1-7.644-7.644 7.644 7.644 0 0 1 7.644-7.644h40.953c.154 0 .306.004.457.013a79.025 79.025 0 0 1 8.873-.498c16.03 0 30.935 4.825 43.34 13.103h23.528a9.112 9.112 0 0 1 9.113 9.112 9.112 9.112 0 0 1-9.113 9.113h-4.277a77.782 77.782 0 0 1 14.784 35.595h11.947c5.941 0 10.758 4.817 10.758 10.758 0 5.942-4.817 10.758-10.758 10.758h-11.81 9.016c-2.966 0-5.664 1.178-7.606 3.14-1.952 1.97-3.157 4.29-3.157 7.295 0 5.987 4.802 10.447 10.726 10.465h10.07a6.973 6.973 0 1 1-.001 13.945h-32.695a78.567 78.567 0 0 1-7.007 8.555h9.498a6.367 6.367 0 1 1 0 12.735h-25.057c-11.984 7.47-26.138 11.786-41.3 11.786a78.54 78.54 0 0 1-15.61-1.558H28.355a3.945 3.945 0 1 1 0-7.89h18.267c1.651 0 3.148-.439 4.234-1.516 1.082-1.081 1.753-2.507 1.753-4.164 0-2.958-2.137-5.35-4.95-5.83h-6.923a5.635 5.635 0 0 1-5.635-5.634v-.709a5.638 5.638 0 0 1 3.898-5.362H16.626c-9.116 0-16.506-7.39-16.506-16.506 0-9.115 7.39-16.505 16.506-16.505h8.762a78.745 78.745 0 0 1-.995-12.506 78.27 78.27 0 0 1 2.746-20.612h-8.583c-6.309 0-11.423-5.113-11.423-11.42 0-6.309 5.114-11.423 11.423-11.423h19.017a78.618 78.618 0 0 1 17.903-18.952zm84.597-15.773a4.959 4.959 0 1 1 0-9.918h12.795a4.959 4.959 0 1 1 0 9.918h-12.795z"/>
        <path id="c" d="M.262.038h27.786v36.228H.262z"/>
        <path id="d" d="M0 .101h12.86v20.645H0z"/>
    </defs>
    <g fill="none" fill-rule="evenodd">
        <g transform="translate(56.433 .53)">
            <mask id="b" fill="#fff">
                <use xlink:href="#a"/>
            </mask>
            <use fill="#DFFAFF" xlink:href="#a"/>
            <g fill="#E6F7FA" mask="url(#b)">
                <path d="M0 0h210.367v176.83H0z"/>
            </g>
        </g>
        <g transform="translate(117.873 6)">
            <path fill="#FFF" d="M90.824 36.96c-.052 0-.101.007-.151.008a7.616 7.616 0 0 0-14.083-5.273 5.868 5.868 0 0 0-10.722 3.696 5.618 5.618 0 1 0-1.39 11.063H90.57v-.012c.085.004.168.013.253.013a4.747 4.747 0 0 0 0-9.494"/>
            <g transform="matrix(-1 0 0 1 85.333 0)">
                <path fill="#EAAC78" d="M33.315 94.682c0-22.316 9.013-30.27 11.976-32.884 1.1-.972 2.349-2.073 2.496-4.05a4.434 4.434 0 0 0-4.093-4.754 4.435 4.435 0 0 0-3.963 1.874l-.311.277c-3.706 3.27-14.978 13.218-14.978 39.537a4.436 4.436 0 0 0 8.873 0M43.364 138.344h7.267v-5.423h-7.267zM62.172 138.344h7.266v-5.423h-7.266z"/>
                <path fill="#20C0D8" d="M52.445 109.903h7.079l1.618 24.46h9.176l1.157-36.54h-31.8l2.57 36.54h9.176z"/>
                <path fill="#F2F1DF" d="M66.745 52.355H44.406a4.731 4.731 0 0 0-4.731 4.73v40.738h31.8V57.086a4.731 4.731 0 0 0-4.73-4.731"/>
                <path fill="#424242" d="M42.246 136.643l-.025.001v6.939h9.2v-6.94h-9.175z"/>
                <path fill="#4A4A4A" fill-opacity=".835" d="M35.305 145.961H51.42v-2.378H35.305z"/>
                <path fill="#9B9B9B" d="M35.304 143.583h6.917v-6.939a6.94 6.94 0 0 0-6.917 6.94"/>
                <path fill="#FFBE03" d="M49.826 140.114a1.768 1.768 0 1 0-3.537 0 1.768 1.768 0 0 0 3.537 0"/>
                <path fill="#424242" d="M61.054 136.643l-.024.001v6.939h9.2v-6.94h-9.176z"/>
                <path fill="#4A4A4A" fill-opacity=".835" d="M54.113 145.961h16.116v-2.378H54.113z"/>
                <path fill="#9B9B9B" d="M54.113 143.583h6.917v-6.939a6.94 6.94 0 0 0-6.917 6.94"/>
                <path fill="#FFBE03" d="M68.634 140.114a1.768 1.768 0 1 0-3.536 0 1.768 1.768 0 0 0 3.536 0"/>
                <path fill="#EAAC78" d="M61.576 52.622v-9.97H50.26v9.97a5.659 5.659 0 0 0 11.316 0"/>
                <path fill="#FAC48D" d="M70.983 28.85c-.322-11.702-7.324-13.411-15.895-13.176-8.573.236-15.468 2.329-15.147 14.029.322 11.7 6.712 20.995 15.284 20.759 8.571-.236 16.08-9.912 15.758-21.613"/>
                <ellipse cx="52.331" cy="44.157" fill="#4C311E" fill-rule="nonzero" rx="2.365" ry="2.003"/>
                <path fill="#3C3C3B" d="M42.24 25.303c5.447 2.872 15.827 1.579 23.177-2.115.986 2.125 1.485 4.751 1.738 6.777a3.566 3.566 0 0 0 3.634 3.12c.52-.491 3.352-8.308 1.59-15.77-3.881-13.466-26.61-9.243-26.97-9.197-6.067.792-9.86 7.262-7.431 12.88.074.17.152.334.233.493-.472 1.323-.54 3.221-.483 5.36.073 2.643 1.081 4.899 2.504 6.094a28.665 28.665 0 0 1-.29-3.242c-.06-2.161.133-3.989.533-5.541.515.403 1.097.787 1.765 1.14"/>
                <path fill="#8E5930" d="M55.523 29.074c.717-.641 2.227-.627 3.112-.516.92.114 1.797.554 2.242 1.362a.207.207 0 0 1 .157.206v.177a.24.24 0 0 1-.077.175.36.36 0 0 1-.437.35c-1.436-.236-2.815-.195-4.262-.21-.879-.01-1.506-.854-.735-1.544M48.896 30.38c-1.443.05-2.823.045-4.253.317a.36.36 0 0 1-.446-.339.239.239 0 0 1-.083-.172l-.003-.178a.208.208 0 0 1 .153-.21c.423-.819 1.289-1.28 2.204-1.418.885-.133 2.393-.184 3.127.44.788.669.182 1.53-.699 1.56"/>
                <path fill="#FAC48D" d="M67.739 36.058c2.633 1.094 5.135-1.407 4.04-4.04a2.762 2.762 0 0 0-1.479-1.48c-2.634-1.094-5.135 1.406-4.04 4.041a2.754 2.754 0 0 0 1.479 1.479"/>
                <path fill="#3C3C3B" d="M64.416 9.333a3.676 3.676 0 1 0-7.352 0 3.676 3.676 0 0 0 7.352 0"/>
                <path fill="#3C3C3B" d="M58.24 7.983a4.327 4.327 0 1 0-8.654-.001 4.327 4.327 0 0 0 8.653.001"/>
                <path fill="#3C3C3B" d="M50.628 7.693a6.933 6.933 0 0 0-13.864 0 6.932 6.932 0 1 0 13.864 0"/>
                <path fill="#3C3C3B" d="M40.29 5.006c-.289.18-3.526 2.687-3.526 2.687l.47 9.742 9.027 3.472-5.97-15.9z"/>
                <path fill="#EAAC78" d="M72.227 80.3l-10.74.217a4.437 4.437 0 1 0 .088 8.874h.092l10.716-.219a12.414 12.414 0 0 0 11.076-7.087 12.416 12.416 0 0 0-1.411-13.074L70.439 54.117a4.437 4.437 0 0 0-6.999 5.454l11.61 14.895c1.24 1.593.698 3.177.407 3.783-.291.607-1.185 2.023-3.23 2.052"/>
                <path fill="#16254F" d="M65.601 52.355h-4.025v45.468h9.9V57.086a4.731 4.731 0 0 0-4.731-4.731H65.6zM46.56 52.355h-2.154a4.731 4.731 0 0 0-4.73 4.73v40.738h11.902l-1.317-45.201s-.22-.099-.586-.267h-3.114z"/>
                <g transform="translate(52.097 66.85)">
                    <mask id="e" fill="#fff">
                        <use xlink:href="#d"/>
                    </mask>
                    <path fill="#DBDBDB" d="M12.433 20.745l-7.447-.406c-.284-.015-.566-.287-.642-.618L.014 2.936c-.08-.35.191-.812.49-.801l8.674.344c.563.106.728.75.788 1.098l2.882 16.59c.06.337-.126.594-.415.578" mask="url(#e)"/>
                </g>
                <path fill="#9B9B9B" d="M63.994 87.584l-7.448-.407c-.283-.015-.566-.287-.641-.618L52.13 70.057c-.08-.349.101-.63.4-.618l8.339.318c.299.011.596.31.657.658l2.882 16.59c.059.337-.126.594-.415.579"/>
                <path fill="#EAAC78" d="M61.487 80.517a4.437 4.437 0 1 0 .088 8.874h.092l10.716-.219a12.414 12.414 0 0 0 11.076-7.087 12.416 12.416 0 0 0-1.411-13.074l-9.665-9.582c-1.005-1.288-.116 3.724 2.667 15.037 1.24 1.593.698 3.177.407 3.783-.291.607-1.185 2.023-3.23 2.052l-10.74.216z"/>
                <path fill="#FFF" d="M57.476 71.516c.065.322-.106.574-.381.564-.275-.01-.551-.28-.616-.603-.065-.322.106-.574.381-.564.275.01.551.28.616.603"/>
                <ellipse cx="58.286" cy="33.524" fill="#4C311E" fill-rule="nonzero" rx="1.143" ry="1.524"/>
                <ellipse cx="47.212" cy="33.524" fill="#4C311E" fill-rule="nonzero" rx="1.143" ry="1.524"/>
            </g>
            <path fill="#FFBE03" d="M71.887 75.632c-1.077-1.167-2.826-2.863-5.067-4.37-5.122-3.448-10.262-4.33-15.279-2.625-5.025 1.707-8.568 5.55-10.525 11.42-.815 2.44-1.17 4.733-1.325 6.304 1.747-2.242 5.772-6.038 14.321-8.944 8.962-3.045 15.014-2.44 17.875-1.785"/>
            <path fill="#FFBE03" d="M51.184 67.583c5.297-1.8 10.928-.84 16.285 2.773a30.423 30.423 0 0 1 5.571 4.885c-3.419-9.23-13.59-14.111-22.967-10.926-9.377 3.188-14.468 13.257-11.553 22.659.114-1.6.453-4.312 1.44-7.268 2.046-6.132 5.926-10.324 11.224-12.123M60.621 95.354c-7.936 2.697-13.518.762-16.801-1.336a17.81 17.81 0 0 1-3.361-2.788c4.376 7.037 13.166 10.404 21.35 7.621 8.185-2.78 13.105-10.804 12.287-19.053a17.843 17.843 0 0 1-.966 4.259c-1.326 3.664-4.572 8.6-12.509 11.297"/>
            <path fill="#FFBE03" d="M54.37 78.47c-10.79 3.668-14.087 8.789-14.718 9.958.47.725 2.043 2.923 4.808 4.68 4.471 2.835 9.787 3.237 15.804 1.193 6.036-2.05 10.012-5.626 11.82-10.622 1.096-3.032 1.017-5.672.947-6.56-1.408-.49-7.9-2.305-18.66 1.352"/>
            <path fill="#D79F00" d="M72.084 83.678c-1.807 4.998-5.785 8.572-11.82 10.623-6.016 2.044-11.332 1.643-15.803-1.193-2.767-1.756-4.338-3.956-4.809-4.68.632-1.17 3.928-6.29 14.72-9.958 10.76-3.656 17.25-1.842 18.66-1.352.068.888.147 3.529-.948 6.56m-31.067-3.62c1.957-5.871 5.5-9.714 10.525-11.422 5.016-1.704 10.155-.821 15.279 2.624 2.24 1.51 3.988 3.206 5.067 4.373-2.862-.657-8.913-1.262-17.875 1.784-8.55 2.907-12.575 6.703-14.321 8.945.154-1.573.51-3.865 1.325-6.305m32.024-4.816a30.423 30.423 0 0 0-5.572-4.885c-5.356-3.614-10.989-4.574-16.285-2.773-5.297 1.8-9.178 5.99-11.223 12.122a30.386 30.386 0 0 0-1.442 7.268 18.277 18.277 0 0 0 1.94 4.256 17.819 17.819 0 0 0 3.361 2.79c3.283 2.098 8.864 4.033 16.802 1.335 7.936-2.697 11.183-7.632 12.509-11.298.57-1.577.843-3.048.964-4.257a18.279 18.279 0 0 0-1.054-4.558"/>
            <ellipse cx="67.045" cy="94.026" fill="#EAAC78" fill-rule="nonzero" rx="4.571" ry="2.667" transform="rotate(-40 67.045 94.026)"/>
        </g>
    </g>
</svg>
