<svg xmlns="http://www.w3.org/2000/svg" xmlns:xlink="http://www.w3.org/1999/xlink" width="57.2" height="66" viewBox="0 0 57.2000012 66.0000014">
    <defs>
        <path id="a" d="M0 .099h57.092v65.633H0z"/>
    </defs>
    <g fill="none" fill-rule="evenodd">
        <g transform="translate(0 .035)">
            <mask id="b" fill="#fff">
                <use xlink:href="#a"/>
            </mask>
            <path fill="#29C0D7" d="M44.704 31.445c6.558-7.318 9.154-12.652 7.676-18.969C47.13-9.97 0 2.51 0 15.446c0 6.033 4.626 9.946 4.626 18.2C4.626 45.085.32 49.263.32 54.263c0 3.03 1.961 4.484 4.121 5.827 6.454 3.693 13.633 5.408 20.566 5.64h2.846l.777-.009c14.193-.576 26.557-7.273 28.241-15.884 1.36-6.958-3.648-13.307-12.166-18.393" mask="url(#b)"/>
        </g>
        <path fill="#FEFEFE" d="M33.553 32.154l-.666.665a8.21 8.21 0 0 1 .518 2.883c0 4.274-3.252 7.789-7.419 8.21l-.009-4.085c0-1.313 1.915-1.767 1.915-3.642 0-1.304-1.26-2.36-2.777-2.35-1.42.01-2.727 1.084-2.717 2.389.014 2.361 1.906 1.875 1.937 3.594l.008 4.097c-4.185-.403-7.458-3.925-7.458-8.213 0-1.014.184-1.987.52-2.884l-.662-.664a3.954 3.954 0 0 1-.003-5.597 3.964 3.964 0 0 1 5.602-.001l1.08 1.076a8.193 8.193 0 0 1 1.722-.181c.591 0 1.169.061 1.725.18l1.068-1.08c.003-.002.004-.005.007-.006a3.96 3.96 0 0 1 5.597.005v.003c0 .001.002.001.002.003a3.957 3.957 0 0 1 .01 5.598m5.702-6.992a2.973 2.973 0 0 0-2.693-2.897c-3.73-.363-6.865-1.532-9.623-3.617a2.975 2.975 0 0 0-3.59 0c-2.757 2.085-5.89 3.254-9.621 3.617a2.973 2.973 0 0 0-2.693 2.897c-.172 8.934-.417 20.163 13.043 25.337a2.975 2.975 0 0 0 2.132 0c13.461-5.173 13.217-16.403 13.045-25.337"/>
    </g>
</svg>
