<svg xmlns="http://www.w3.org/2000/svg" xmlns:xlink="http://www.w3.org/1999/xlink" width="320" height="175" viewBox="0 0 320 175">
    <defs>
        <path id="a" d="M65.808 25.873H62.03c-5.008 0-9.067-3.414-9.067-7.625 0-4.212 4.06-7.626 9.067-7.626h48.581c.182 0 .363.005.542.014 3.455-.328 6.967-.497 10.525-.497 19.017 0 36.697 4.813 51.412 13.07H201c5.971 0 10.81 4.07 10.81 9.09s-4.839 9.09-10.81 9.09h-5.074c9.087 10.192 15.276 22.316 17.538 35.508h14.172c7.048 0 12.762 4.805 12.762 10.731 0 5.927-5.714 10.731-12.762 10.731h-14.01 10.696c-3.519 0-6.72 1.175-9.023 3.132-2.315 1.966-3.745 4.28-3.745 7.277 0 5.973 5.696 10.422 12.724 10.44h11.945c4.567 0 8.271 3.114 8.271 6.955 0 3.842-3.704 6.955-8.272 6.955h-38.785a83.01 83.01 0 0 1-8.311 8.534h11.267c4.172 0 7.553 2.844 7.553 6.352 0 3.508-3.381 6.352-7.553 6.352H170.67c-14.216 7.452-31.006 11.757-48.992 11.757-6.341 0-12.533-.535-18.517-1.554H33.635c-2.585 0-4.68-1.762-4.68-3.936 0-2.173 2.095-3.935 4.68-3.935h21.67c1.958 0 3.734-.438 5.022-1.512 1.283-1.079 2.08-2.501 2.08-4.153 0-2.951-2.536-5.338-5.872-5.816h-8.213c-3.691 0-6.684-2.516-6.684-5.62v-.707c0-2.5 1.94-4.619 4.624-5.35h-26.54c-10.814 0-19.58-7.371-19.58-16.465 0-9.092 8.766-16.464 19.58-16.464h10.395a66.488 66.488 0 0 1 2.077-33.036H22.011c-7.484 0-13.55-5.1-13.55-11.393 0-6.292 6.066-11.394 13.55-11.394H44.57c5.78-7.255 12.968-13.649 21.237-18.905zM166.162 10.14c-3.25 0-5.883-2.214-5.883-4.947 0-2.732 2.634-4.946 5.883-4.946h15.178c3.25 0 5.883 2.214 5.883 4.946 0 2.733-2.633 4.947-5.883 4.947h-15.178z"/>
        <path id="c" d="M.682 1.015H4.09V4.04H.682z"/>
        <path id="e" d="M0 .07h9.436v10.816H0z"/>
        <path id="g" d="M.02 0h62.66v7.224H.02z"/>
        <path id="h" d="M.034.094h11.003V27.4H.034z"/>
    </defs>
    <g fill="none" fill-rule="evenodd">
        <g transform="translate(37)">
            <mask id="b" fill="#fff">
                <use xlink:href="#a"/>
            </mask>
            <use fill="#DFFAFF" xlink:href="#a"/>
            <g fill="#E6F7FA" mask="url(#b)">
                <path d="M0 0h243.907v171.528H0z"/>
            </g>
        </g>
        <path fill="#F4BB82" d="M251.11 81.703s2.126.51 2.866.695c.743.184 1.858-.102 1.883-3.003l.055-6.57s-.506-1.603-1.262-.01c-.757 1.592-2.485 5.314-3.513 5.36-1.028.046-.03 3.528-.03 3.528"/>
        <path fill="#1DB2C9" d="M224.241 104.755s8.457 4.265 11.811.612c3.354-3.653 2.828-14.838 4.406-17.507 1.579-2.668 11.675-5.144 11.675-5.144l-.69-5.159s-11.642 1.3-14.997 4.583c-3.354 3.285-5.525 14.54-6.906 17.007-1.381 2.468-5.299 5.608-5.299 5.608"/>
        <path fill="#E58E63" d="M162.463 41.841s1.568 1.004 2.752 5.038c1.184 4.034 2.658 13.503 7.492 18.045 4.835 4.541 14.454 3.889 14.454 3.889s.39-1.612 3.33-1.612 4.782 1.778 4.65 2.764c-.132.988 2.487 2.807.214 3.774-2.273.965-7.92.287-8.469.287-.548 0-14.629 2.16-20.586-2.678-5.958-4.837-6.96-12.143-6.96-12.143l3.123-17.364z"/>
        <path fill="#F4BB82" d="M188.314 157.032c.027-.09-.48-5.193-1.052-8.484-.572-3.29-.967-4.178-.967-4.178l6.742-1.745s.756 3.192 1.25 6.515c.493 3.324.657 6.972.855 7.534.196.562-6.828.358-6.828.358M140.475 159.303s6.258-4.535 8.296-6.97c2.04-2.435 6.25 3.027 6.25 3.027l-9.212 7.607-5.334-3.664z"/>
        <path fill="#20C0D8" d="M139.306 87.44s.06 6.054 1.77 10.266c1.71 4.213 9.932 15.302 12.3 25.965 2.367 10.662 1.644 13.656-1.513 21.158-3.157 7.504-5.056 7.302-5.056 7.302s1.8 3.559 3.905 3.427c2.105-.132 5.987-.3 5.987-.3s8.113-8.885 8.377-22.312c.263-13.426-9.267-34.318-9.267-34.318l1.447-.263s15.391 13.03 21.443 28.827c6.05 15.795 6.708 20.533 6.708 20.533s3.025.132 5.657-.263c2.63-.394 4.078-2.369 4.078-2.369s-6.446-24.088-12.892-35.672c-6.446-11.583-21.349-28.498-21.349-28.498l-21.595 6.516z"/>
        <path fill="#16254F" d="M145.96 38.493s-7.99-.778-9.955 2.393c-1.964 3.17-3.446 7.164-3.347 21.478.098 14.315 6.649 25.076 6.649 25.076s6.276.295 13.279-1.481c7.005-1.777 8.316-5.035 8.316-5.035s-1.485-11.169 0-17.991c1.484-6.82 3.479-19.567 1.561-21.091-1.918-1.526-7.199-2.569-7.199-2.569l-9.304-.78z"/>
        <path fill="#F4BB82" d="M156.562 32.86l-.196 7.235s-1.175 2.241-5.012 1.645c-3.837-.597-5.394-3.247-5.394-3.247l1.976-9.102 8.626 3.47z"/>
        <path fill="#E58E63" d="M146.597 35.56s2.693 1.618 6.045 1.463c3.35-.155 3.834-.98 3.834-.98l.083-.49-8.803-5.108-1.16 5.115z"/>
        <path fill="#F4BB82" d="M167.153 20.682l-.846 4.99s-1.837 10.102-6.889 10.168c-5.051.065-10.331-3.325-11.661-5.395-1.33-2.069-1.575-5.42-1.575-5.42s-2.435.293-3.171-3.358c-.737-3.65.934-4.126.934-4.126s1.107-.355 2.189.299c1.082.653 1.268 1.046 1.268 1.046s-.835-7.445.896-10.84c1.732-3.393 9.752-5.197 15.574-.739 5.821 4.459 3.281 13.375 3.281 13.375"/>
        <path fill="#E58E63" d="M143.62 20.632s-.035-1.615.462-1.874c.495-.26 2.094.536 2.177 2.502.083 1.967-.64 1.862-1.07 1.735-.43-.127-.739-.867-.42-1.68.318-.814.671-.663.671-.663s-.337-1.438-1.008-1.4c-.671.036-.695 1.43-.695 1.43l-.118-.05z"/>
        <path fill="#4C311E" d="M155.314 20.268c.114-.675-.197-1.291-.695-1.375-.498-.085-.995.395-1.109 1.069-.115.675.197 1.29.695 1.376.498.084.995-.395 1.109-1.07M164.765 21.87c.114-.674-.197-1.29-.695-1.374-.498-.085-.994.395-1.109 1.07-.115.674.197 1.29.696 1.375.497.084.994-.395 1.108-1.07"/>
        <path fill="#593923" d="M156.387 16.036c-.591-.613-1.923-.699-2.713-.658-.817.04-1.62.372-2.066 1.057a.183.183 0 0 0-.151.171l-.013.157a.21.21 0 0 0 .058.16.319.319 0 0 0 .363.336c1.282-.114 2.497.01 3.772.091.778.05 1.386-.655.75-1.314M162.704 18.442c1.206.42 2.374.777 3.512 1.381.201.107.4.01.465-.169a.208.208 0 0 0 .115-.124l.05-.15a.186.186 0 0 0-.073-.217c-.146-.803-.757-1.42-1.494-1.776-.712-.344-1.973-.783-2.755-.45-.842.362-.555 1.248.18 1.505"/>
        <path fill="#FFF" d="M159.34 29.629l1.96.187.676-1.493-7.176-1.217s-.335 3.852 3.188 4.45c1.256.213 2.184-.128 2.86-.652l.395-.836-1.903-.44z"/>
        <path fill="#E58E63" d="M161.975 28.323l-.675 1.493-1.96-.187 1.903.438-.396.837c1.22-.947 1.616-2.498 1.616-2.498l-.488-.083z"/>
        <path fill="#593923" d="M153.987 26.195s3.244-.58 3.92-.466l3.581.607s2.486 1.93 2.467 2.043c-.02.113-.735.833-5.178.05-4.442-.782-5.239-1.903-5.22-2.017.02-.112.43-.217.43-.217M157.641 32.121l1.649.12s-.103 1.569 1.394 1.63c1.5.06 1.723-.18 2.478-.813.755-.633 1.24-1.552 1.24-1.552s-.96 3.876-3.093 5.294c-2.134 1.418-5.132.973-8.62-1.036-5.709-3.29-6.053-8.088-6.053-8.088s3.224 4.358 7.185 5.214c3.556.768 3.82-.769 3.82-.769M169.13 9.109c-1.028-3.502-9.353-7.004-15.36-6.165-6.007.839-6.814 2.404-6.814 2.404s-1.294 1.59.732 1.787c2.025.2 3.624.18 3.624.18s-3.284.72-3.95 3.625c-.666 2.905.709 5.575.526 7.17-.05.435-.179.829-.34 1.172l.442.403s.975-2.002.948-3.206c-.028-1.205-1.006-3.885-.028-6.002.977-2.117 2.446-2.226 2.446-2.226s1.642 2.068 4.566 2.951c2.924.882 4.309 3.207 4.309 3.207s1.377-1.391 2.577-1.575c1.2-.183 2.223-.436 2.782-1.23.561-.795.125-2.399.125-2.399s1.065 2.668 1.526 4.904c.463 2.235-.038 6.383-.038 6.383s2.956-7.88 1.927-11.383"/>
        <g transform="translate(145.62 1.505)">
            <mask id="d" fill="#fff">
                <use xlink:href="#c"/>
            </mask>
            <path fill="#593923" d="M2.785 1.681c.802-.398 1.304-.622 1.304-.622s-2.224-.338-2.93.858C.684 2.724.66 3.573.694 4.04l.643-.197s.647-1.765 1.449-2.162" mask="url(#d)"/>
        </g>
        <path fill="#442B1B" d="M147.888 18.11c.183-1.595-1.192-4.265-.525-7.17.665-2.904 3.948-3.625 3.948-3.625s-1.598.02-3.623-.18c-2.025-.198-.732-1.787-.732-1.787l-.643.197c.017.224.047.36.047.36s-3.096 1.835-2.535 5.374c.561 3.538 1.935 6.373 1.935 6.373l1.789 1.63c.16-.343.289-.737.339-1.172"/>
        <path fill="#FFE7D7" fill-opacity=".24" d="M160.882 3.715s3.254 1.335.377 2.908c-2.876 1.572-9.646.279-9.646.279s1.63 1.67 2.801 1.955c1.17.285 10.113 1.57 11.709-.481 1.595-2.05-4.124-4.407-4.124-4.407l-1.117-.254z"/>
        <path fill="#6B371B" d="M190.562 86.178s-.762-.022-1.404.45c-.643.47-.996 1.096-.996 1.096l1.07-.635s-.58.761.604 2.76c1.185 1.999 3.275 1.983 3.275 1.983s-.597-.15-1.041-.776c-.445-.628-.353-1.044-.353-1.044s.153 1.392 2.644 1.535c2.492.142 3.08-.783 3.08-.783l-6.88-4.586z"/>
        <path fill="#F4BB82" d="M207.976 88.479l2.614 1.454s.466.825-.6 2.206c-1.068 1.38-2.08 1.446-2.08 1.446l-3.408-2.556 3.474-2.55z"/>
        <path fill="#E58E63" d="M206.981 92.885s1.244-.454 1.833-1.835c.59-1.38.276-1.967.276-1.967l-.472-.257-3.62 2.548 1.983 1.51z"/>
        <path fill="#F4BB82" d="M204.762 79.407l2.313 1.71s4.166 3.377 2.79 6.11c-1.373 2.732-4.096 4.867-5.524 5.062-1.426.193-3.206-.517-3.206-.517s-.53 1.382-2.598.86c-2.07-.522-1.847-1.54-1.847-1.54s.128-.684.763-1.101c.635-.418.888-.419.888-.419s-4.035-1.424-5.285-3.208c-1.251-1.785.063-6.549 3.963-8.557 3.898-2.008 7.743 1.6 7.743 1.6"/>
        <path fill="#E58E63" d="M198.177 92.044s-.834-.388-.827-.72c.005-.33.857-.99 1.885-.541 1.026.45.772.813.587 1.012-.185.199-.648.18-.976-.196-.326-.377-.15-.529-.15-.529s-.83-.179-.997.19c-.168.37.537.734.537.734l-.059.05z"/>
        <path fill="#59390A" d="M201.347 85.537c-.403-.298-.921-.282-1.156.036-.235.318-.098.817.306 1.116.403.298.921.282 1.156-.036.234-.318.098-.818-.306-1.116M204.797 80.864c-.4-.296-.915-.281-1.148.035-.233.316-.097.812.303 1.11.401.295.915.279 1.148-.037.233-.316.098-.812-.303-1.108"/>
        <path fill="#8E5930" d="M199.091 83.914c-.358.288-.664 1.034-.811 1.484-.152.465-.187.944-.014 1.248-.01.046-.002.088.034.1l.059.02c.023.007.05-.003.073-.022.072.02.167-.049.205-.179.218-.734.516-1.41.81-2.125.178-.436.03-.834-.356-.526M202.004 80.97c.595-.486 1.153-.967 1.785-1.386.112-.073.152-.186.116-.252.01-.028.013-.056 0-.079l-.033-.052c-.02-.033-.062-.03-.101-.007-.331-.09-.77.077-1.167.356-.384.267-1.005.776-1.183 1.211-.19.468.22.506.583.21"/>
        <path fill="#FFF" d="M206.982 85.654l.643-1.006-.576-.738-2.62 3.55s1.872 1.15 3.16-.595c.459-.621.544-1.206.464-1.7l-.317-.423-.754.912z"/>
        <path fill="#E58E63" d="M207.05 83.91l.574.738-.641 1.006.754-.912.316.422c-.143-.894-.826-1.496-.826-1.496l-.177.241z"/>
        <path fill="#8E5930" d="M199.258 75.047c-1.288.14-4.801 1.095-7.679 5.868-1.513 2.512-1.04 4.881-.931 6.049 0 0 .244 1.734.91.915.664-.818 1.722-2.58 1.722-2.58s-.263 1.422 1.172 2.052c1.435.63 3.2.705 4.271 1.346.668.4 1.386.953 1.83 1.312.2-.197.673-.826.625-.889-.057-.074-3.204-1.969-4.11-2.092-.905-.124-2.003-.389-2.491-.75-.488-.36-.638-.557-.638-.557s-.289-.961.707-1.835 2.403-1.357 3.426-3.218c1.023-1.86.395-2.233 1.035-2.927.64-.694 2.964-.008 2.964-.008s-1.525-2.826-2.813-2.686"/>
        <path fill="#6B371B" d="M198.723 88.696c-1.071-.64-2.837-.716-4.27-1.345-1.435-.629-1.173-2.052-1.173-2.052s-1.058 1.762-1.723 2.58c-.665.818-.91-.914-.91-.914.099 1.05.51 1.587.608 1.66.21.154 5.494 2.268 5.494 2.268s.135-.502.704-.902l.888-.419s.544-.206 1.172.064c.63.27.87.45.964.432.014-.002.04-.024.077-.06-.445-.358-1.163-.911-1.83-1.312"/>
        <path fill="#FFEFCA" fill-opacity=".24" d="M193.71 78.64s1.986-1.239 2.082-.002c.098 1.237-2.47 6.11-2.47 6.11s1.437-1.288 1.909-1.544c.47-.255 3.185-5.192 2.91-6.625-.276-1.433-3.139.406-3.7 1.07-.56.663-.73.99-.73.99"/>
        <path fill="#EF7D0D" d="M203.313 84.93c-.05.004-.098.044-.121.087a.173.173 0 0 0-.012.148c.048.125.225.122.292.004a.167.167 0 0 0 .002-.164c-.034-.06-.093-.08-.161-.075M203.027 84.18c-.056.075-.047.193.028.243.076.05.182.036.24-.045.057-.074.048-.192-.027-.244a.177.177 0 0 0-.241.045M202.378 84.306a.079.079 0 0 0-.03-.047.081.081 0 0 0-.055-.015.148.148 0 0 0-.088.026c.016-.008.009-.004-.022.015a.212.212 0 0 0-.035.034.266.266 0 0 0-.032.068c-.015.05-.009.109.036.139.045.03.095.023.141-.008a.25.25 0 0 0 .057-.05.337.337 0 0 0 .022-.043.545.545 0 0 0 .006-.027.142.142 0 0 0 0-.092M202.2 82.931a.152.152 0 0 0-.125.147.13.13 0 0 0 .155.132c.076-.014.126-.088.12-.165a.131.131 0 0 0-.15-.114M204.154 82.792c-.135.183.132.38.267.198.136-.185-.131-.381-.267-.198M204 84.233c-.02 0-.04 0-.06.007-.017.005-.02.006-.008.003.018-.004.009-.001-.027.01a.216.216 0 0 0-.092.103c-.028.052-.003.13.042.16.045.031.121.039.167-.007.032-.032.067-.07.07-.117.001-.01-.003-.054.002-.023a.103.103 0 0 0-.004-.047c-.001-.01-.004-.018-.007-.028-.01-.032-.05-.062-.083-.06M205.37 82.64a.072.072 0 0 0-.036-.015c-.022-.005-.024-.005-.007.002-.056-.013-.121-.005-.16.052-.038.056-.033.114-.002.168l-.008-.01c.007.02.018.034.033.047.017.017.037.027.06.038.053.027.137-.006.17-.056.036-.051.048-.135.004-.18-.017-.019-.032-.035-.053-.047M206.23 82.523a.094.094 0 0 0-.074-.027l.003-.001h-.005c-.007 0-.014 0-.021.003a.144.144 0 0 0-.07.022.166.166 0 0 0-.079.084.204.204 0 0 0 .021.192c.032.052.118.068.174.04a.17.17 0 0 0 .093-.164c.004.058 0-.019 0-.036a.197.197 0 0 0-.013-.048.1.1 0 0 0-.03-.065M206.062 82.52c-.032.02-.011.006 0 0M206.062 82.52c.01-.006.007-.003 0 0M206.56 81.593l-.007.02v.002a.028.028 0 0 0-.003.013c-.013.05.006.09.037.111.03.027.072.037.12.011.01-.004.02-.01.029-.019a.019.019 0 0 1 .005-.004c.167-.126-.11-.331-.18-.134M203.495 85.792l-.012-.001c-.114-.009-.204.115-.163.221a.149.149 0 0 0 .141.105c.115.008.206-.114.164-.22 0-.005-.003-.008-.004-.012a.147.147 0 0 0-.126-.093M202.676 85.794a.154.154 0 0 0-.08.231c.01.015.023.03.038.039a.113.113 0 0 0 .011.01c.013.015.028.03.05.04.034.016.074-.006.097-.032a.133.133 0 0 0 .029-.06.254.254 0 0 0 .032-.079c.023-.104-.089-.177-.177-.149M202.485 87.06c-.067-.014-.121.025-.154.086a.163.163 0 0 0 .084.226.13.13 0 0 0 .134-.035.137.137 0 0 0 .03-.139c.012.039.004.008 0-.006.002-.064-.032-.117-.094-.131"/>
        <path fill="#8E5930" d="M190.562 86.178s-1.298-1.2-1.479-2.24c-.18-1.037.1-1.5.1-1.5s.114 1.074.318 1.507c.204.434.516.635.516.635s-1.575-2.66 1.292-6.242 4.549-3.977 4.549-3.977-.545.436-.843.723c-.23.224-.328.415-.328.415s1.85-1.474 4.051-1.719c2.202-.243 3.391.647 3.423.702.032.053-.935-.073-1.43.027-.494.102-.833.303-.833.303s1.04-.295 1.72.25c.68.545 1.343 1.936 1.343 1.936s-.49-.53-.982-.709c-.491-.178-.906.14-.906.14s-3.222-1.898-6.283.802c-3.061 2.7-2.853 5.992-2.853 5.992l-1.375 2.955z"/>
        <path fill="#8E5930" d="M196.481 82.543s1.136-1.011 2.391-1.087c1.254-.075 1.8.59 1.8.59s-.217-1.293-.771-1.617c-.554-.322-1.156-.158-1.156-.158s.434-.33.85-.359c.414-.03.778.19.778.19s-.225-.735-.591-.856c-.366-.12-.6-.03-.6-.03l.904-1.042-.79.106.538-1.163s-.577-.213-.684-.15c-.107.064-1.08 2.402-1.121 2.498-.04.097-.843 1.296-.983 1.573-.142.276-.565 1.505-.565 1.505"/>
        <path fill="#FFBE03" d="M205.965 95.811s1.764-3.13 2.848-4.627c1.085-1.496 1.391-2.549 4.056-3.52 4.13-1.505 5.047 2.188 9.074 5.202 4.026 3.015 5.076 4.503 5.076 4.503s-.533 2.024-3.557 5.434c-3.025 3.41-4.745 4.559-4.745 4.559s-12.77-9.213-13.12-9.684c-.352-.47.368-1.867.368-1.867"/>
        <path fill="#FFF" d="M206.658 93.081s1.018-.956 2.06-2.207c1.04-1.253.967-1.858.967-1.858l.986-.202s-.02 1.108-1.237 2.781c-1.215 1.674-2.766 2.997-2.766 2.997l-.01-1.51zM210.227 101.097l-.553-2.95s2.787-.054 2.89-.254c.102-.2-.25-3.19-.25-3.19l3.395-.639-.815-2.595 2.819-.136-.746-1.856 2.112 1.284.87 2.391-3.34-.387.624 3.213-3.22-.032.52 3.433-3.187.087.256 2.729-1.375-1.098zM212.851 103.107l8.858-10.419.844.641-8.92 10.349zM214.615 104.391l3.764-.437-.773-2.938 3.03-.087s-.202-3.437-.073-3.46c.13-.022 3.267-.012 3.267-.012l-.487-3.51.88.717.646 3.458-3.45.188.215 3.526-3.247-.005.772 2.937-3.546.347-.998-.724z"/>
        <path fill="#F9ECC2" d="M207.563 98.511l.583-.862.531 2.023z"/>
        <path fill="#FFF" d="M208.873 96.345l1.815-2.045.103 2.075zM211.791 92.786l1.474-1.795.387 1.548zM214.485 89.82l1.08-1.196.465.284-.042.982zM206.588 96.952l7.491-9.05-.205.02-7.32 8.607z"/>
        <path fill="#FFBE03" d="M209.674 100.57s-9.789.943-18.169-4.817c-8.38-5.759-9.056-10.84-9.056-10.84l3.704-1.897s4.295 6.855 8.478 9.102c4.182 2.246 11.922 2.669 11.922 2.669l3.121 5.783z"/>
        <path fill="#F4BB82" d="M185.555 83.323s.546-1.368.243-2.04c-.303-.672-.48-1.47-.373-1.99.106-.52.253-.867-.054-1.205-.307-.338-.756.202-.858.667-.101.465.13 2.161.021 2.123-.11-.04-1.923-4.712-2.192-4.85-.27-.139-.836.14-.554 1.032.282.893 1.103 2.658 1.103 2.658s-1.885-2.764-2.31-3.058c-.425-.294-.854.054-.7.488.157.434 1.981 3.24 1.981 3.24s-2.382-2.304-2.728-2.534c-.346-.23-.948.129-.475.817.47.69 2.111 2.472 2.111 2.472s-2.17-1.167-2.452-1.25c-.28-.084-.676.323-.083.857.595.533 2.47 1.641 2.47 1.641s1.27 1.605 1.634 1.894c.365.287.668.343.668.343l2.548-1.305zM188.55 156.22s-.892 3.073-1.215 4.146c-.32 1.072.215 2.68 5.465 2.68h11.891s2.894-.75 0-1.822c-2.892-1.073-9.656-3.52-9.756-5.004-.1-1.483-6.385 0-6.385 0M140.475 159.303s-2.392 2.125-3.234 2.861c-.843.735-1.246 2.381 3.196 5.18 4.442 2.8 10.064 6.34 10.064 6.34s2.847.909.97-1.541-6.297-8.127-5.592-9.435c.705-1.309-5.404-3.405-5.404-3.405M245.585 84.31s2.126.51 2.866.695c.743.184 1.86-.102 1.883-3.003l.056-6.57s-.507-1.603-1.263-.01c-.757 1.592-2.484 5.314-3.513 5.36-1.028.046-.03 3.528-.03 3.528"/>
        <path fill="#06B0C6" d="M147.753 150.029s-2.417 2.37-2.417 2.962c0 .592 2.022 2.912 4.587 3.752 2.565.838 4.933 1.035 5.673.444.74-.593 2.676-2.388 2.565-3.011-.111-.624-3.794.345-6.411-1.037-2.617-1.382-3.997-3.11-3.997-3.11M184.552 146.228s.247 2.665.641 2.962c.395.296 3.552.79 6.512 0 2.96-.79 4.044-2.024 4.044-2.962 0-.937-.66-2.76-1.07-2.812-.41-.05-2.432 1.529-4.528 1.974-2.097.443-4.774.225-5.186.334-.413.11-.413.504-.413.504"/>
        <path fill="#22B5CC" d="M155.81 98.628l-.79-1.185 10.195-4.475-5.098 5.265 2.222 4.98-5.083-4.848z"/>
        <path fill="#0D152E" d="M133.67 46.879l-.368 2.113s-.645 7.58 9.945 17.781c10.589 10.202 16.377 10.333 16.377 10.333l.989 1.126-.196-2.68-26.746-28.673z"/>
        <path fill="#F4BB82" d="M176.522 74.16s-12.948-3.943-19.868-9.294c-6.92-5.354-9.317-12.636-10.164-16.266-.846-3.629-.033-7.696-3.252-8.9-3.22-1.208-10.547-.325-9.458 9 1.09 9.325 17.129 22.526 25.267 26.26 8.14 3.732 16.968 3.891 16.968 3.891s6.017 2.182 6.315 2.154c.298-.028 4.61 1.614 4.81.042.202-1.573-1.109-3.753-2.701-4.703-1.593-.95-3.637-.855-3.637-.855s1.486-.694 2.041-.646c.556.047 1.47.711 1.509.057.037-.656-2.141-1.45-3.586-1.362-1.443.087-4.244.622-4.244.622"/>
        <path fill="#FFBE03" d="M211.844 88.096s.3-4.606-5.57-9.87c-5.87-5.265-13.472-5.753-13.472-5.753v-3.66s11.133.24 16.372 4.926c5.239 4.684 8.33 14.886 8.33 14.886l-5.66-.53z"/>
        <path fill="#F4BB82" d="M192.802 69.242s-2.364-.461-3.153-.428c-.79.033-2.564.922-2.73 1.744-.164.823.231 1.777 2.335 1.777 2.105 0 3.548-.461 3.548-.461v-2.632z"/>
        <path fill="#20C0D8" d="M218.716 107.362s8.457 4.265 11.811.612c3.354-3.653 2.828-14.838 4.407-17.507 1.578-2.668 11.674-5.144 11.674-5.144l-.69-5.159s-11.642 1.3-14.996 4.583c-3.355 3.285-5.526 14.54-6.906 17.007-1.382 2.468-5.3 5.608-5.3 5.608"/>
        <g>
            <path fill="#E58E63" d="M105.26 79.75s2.113 1.24 2.447 3.645c.334 2.404.049 9.114 2.87 12.688 2.82 3.575 7.872-.758 8.332-2.707.46-1.95 1.42-4.083 1.42-4.083l4.717-4.705s.232.09 0 2.387c-.231 2.297-2.634 5.68-2.723 6.036-.089.357-4.272 10.924-11.28 8.615-7.006-2.308-5.913-9.806-5.913-9.806l.13-12.07z"/>
            <path fill="#F4BB82" d="M115.6 92.086s.284-2.475.554-2.954c.27-.478 1.684-.79 2.017-.894.332-.104.873-.208.707.291-.167.5-1.518 1.055-1.705 1.401-.187.346-.083 1.262-.083 1.886 0 .624-.52 1.56-.52 1.56l-.97-1.29z"/>
            <g transform="matrix(-1 0 0 1 126.176 80.618)">
                <mask id="f" fill="#fff">
                    <use xlink:href="#e"/>
                </mask>
                <path fill="#3D3B3B" d="M.053 1.577l4.031 8.96a.591.591 0 0 0 .54.349h4.22c.414 0 .7-.415.553-.802L5.739.451a.591.591 0 0 0-.638-.375L.506.748a.592.592 0 0 0-.453.829" mask="url(#f)"/>
            </g>
            <g transform="matrix(-1 0 0 1 96.04 48.628)">
                <mask id="i" fill="#fff">
                    <use xlink:href="#h"/>
                </mask>
                <path fill="#994F1D" d="M.034 3.483S-.089 1.477 3.962.35c4.052-1.127 7.46 1.55 7.04 6.175-.422 4.626-3.291 16.699-2.26 18.489 1.03 1.79 1.948.893 1.948.893s-.208 1.588-3.874 1.49C3.15 27.298 3.5 15.865 3.893 12.458c.393-3.406-2.078-3.643-2.078-3.643L.035 3.483z" mask="url(#i)"/>
            </g>
            <path fill="#F4BB82" d="M103.718 74.762l.109 5.874s-.695 1.903-3.223 1.707c-2.528-.197-3.302-2.327-3.302-2.327l.664-7.42 5.752 2.166z"/>
            <path fill="#E58E63" d="M103.799 79.115s-1.836-.266-3.643-1.679c-1.808-1.412-2.43-3.02-2.43-3.02l.086-.872 5.949 3.519.038 2.052z"/>
            <path fill="#F4BB82" d="M112.536 64.916l-.066.697a22.585 22.585 0 0 1-2.234 7.876c-1.027 2.079-3.31 4.103-4.364 4.082-4.556-.095-7.732-2.508-9.021-4.119-1.29-1.61-2.13-3.855-2.13-3.855s-2.082.371-2.967-2.557c-.885-2.929.525-3.407.525-3.407s.933-.35 1.911.123c.979.472 1.167.782 1.167.782s-1.229-6.01.035-8.865c1.263-2.855 8.067-4.761 13.398-1.454 5.331 3.307 3.746 10.697 3.746 10.697"/>
            <path fill="#E58E63" d="M92.21 66.164s-.14-1.311.27-1.55c.41-.238 1.846.322 2.052 1.917.205 1.594-.426 1.549-.807 1.47-.38-.08-.696-.665-.477-1.344.22-.68.536-.577.536-.577s-.39-1.15-.968-1.084c-.577.067-.501 1.202-.501 1.202l-.106-.034zM108.265 69.295c.005-.7-.742-1.352-1.069-1.935-.207-.37-.39-.754-.488-1.162-.116-.483-.035-.926-.022-1.408 0-.034-.048-.057-.07-.025-.572.815-.227 2.121.19 2.942.11.217.237.426.372.63.181.272.644.735.486 1.085-.107.236-.583.353-.82.393-.338.058-.585-.036-.893-.154-.093-.035-.169.043-.161.126.05.592.85.645 1.313.533.568-.138 1.157-.397 1.162-1.025"/>
            <path fill="#DB6E3E" d="M101.738 62.77c.446-.056.945-.083 1.372.086.183.072.652.403.355.646-.238.196-.476.087-.755.056a5.048 5.048 0 0 0-1.04.003 3.9 3.9 0 0 0-.854.173c-.274.091-.517.325-.8.35-.13.01-.265-.083-.246-.232.099-.767 1.368-1.008 1.968-1.083M110.198 63.218c-.382-.134-.816-.249-1.22-.16-.174.039-.646.28-.429.573.175.234.404.17.654.19.31.023.617.093.914.188.248.08.493.182.72.322.224.139.396.412.64.487a.198.198 0 0 0 .257-.184c.05-.771-1.022-1.235-1.536-1.416"/>
            <path fill="#4C311E" d="M109.94 65.804a.63.63 0 0 1 .084.015l1.318-.017-.808.469c.082.176.12.389.1.614-.053.555-.45.972-.886.93-.436-.041-.746-.525-.694-1.08.053-.555.45-.972.885-.93M101.775 65.029a.615.615 0 0 1 .085.014l1.318-.017-.808.469c.082.176.12.389.1.614-.053.555-.45.972-.886.93-.436-.041-.746-.525-.694-1.08.053-.555.45-.972.885-.93"/>
            <path fill="#994F1D" d="M102.705 56.084s2.173 1.926 1.087 3.745c-1.087 1.818-3.667 1.725-3.667 1.725s.844-.881.77-1.799c-.075-.917-.394-2.161-.394-2.161s.319 3.52-1.385 4.47c-1.703.951-2.657 1.366-2.708 2.474-.052 1.108.489 1.08.292 1.455s-1.346-1.375-2.239-1.908c-.893-.532-1.427-.576-1.427-.576s-.217-7.1.904-9.523c1.12-2.422 6.186-3.811 12.616-2.088 6.43 1.724 8.89 5.848 8.345 8.175-.543 2.327-2.21 3.762-2.21 3.762s.645-3.053-3.115-4.268c-3.76-1.215-6.869-3.483-6.869-3.483"/>
            <path fill="#FFE7D7" fill-opacity=".25" d="M107.264 52.408s2.54 1.035 1.491 2.111c-1.049 1.076-11.587-.895-11.587-.895s1.127.96 1.776 1.256c.648.297 6.983 1.78 10.798 1.79 3.815.01 1.546-2.454.5-3.024-1.045-.57-2.978-1.238-2.978-1.238"/>
            <path fill="#F4BB82" d="M101.194 106.588l-1.775 53.537-4.415-.072-1.275-42.064-1.966.347s-1.848 14.869-6.924 16.68c-5.077 1.813-12.046-6.127-12.046-6.127l.693-3.903s5.482 4.381 7.626 4.415c2.144.035 2.154-6.025 2.625-11.826.472-5.8.214-13.253.214-13.253l17.243 2.266z"/>
            <path fill="#16254F" d="M94.863 157.74l-.07 7.66 13.518.123s.578-5.305-2.887-5.336c-3.465-.032-5.94-2.405-5.94-2.405l-4.62-.042z"/>
            <path fill="#FFF" d="M94.801 164.574l13.546.123-.067-1.145-13.468-.122zM100.06 158.256l-2.18.86.212.656 2.452-1.174zM101.265 159.034l-2.492 1.353.42.614 2.639-1.677z"/>
            <path fill="#16254F" d="M75.578 125.893l-5.524-5.304-9.36 9.759s3.462 4.06 5.862 1.558c2.399-2.502 5.823-2.677 5.823-2.677l3.2-3.336z"/>
            <path fill="#FFF" d="M70.65 121.161l-9.379 9.78.878.737 9.326-9.725zM71.639 129.323l.87-2.178-.623-.294-.828 2.591zM70.246 129.668l.725-2.743-.733-.116-.591 3.072z"/>
            <path fill="#F4BB82" d="M103.802 79.78l.675.864 1.346 6.862-.305 2.938-10.207-.493.35-11.22z"/>
            <path fill="#20C0D8" d="M103.802 79.78l1.458-.03s1.814 4.03 1.569 9.306c-.244 5.277-5.18 19.312-5.18 19.312s-3.116 2.183-8.794-.268l-5.678-2.452 3.618-21.753 1.94-4.78 2.926-.384s2.158.86 2.406 3.183c.247 2.323.581 2.94.816 3.474.235.536 5.004 1.509 5.722.608.718-.901-.803-6.217-.803-6.217"/>
            <path fill="#20C0D8" d="M88.004 100.674s-6.843.626-10.408 5.221c-3.565 4.595-4.614 8.07-4.614 8.07s2.104 8.485 18.362 11.144c16.259 2.658 21.839-2.5 21.839-2.5s-1.987-9.243-5.28-13.944c-3.292-4.701-7.495-5.844-7.495-5.844l-12.404-2.147z"/>
            <path fill="#FFF" d="M73.799 111.971s1.886 9.315 17.093 11.807c15.208 2.49 21.974-2.507 21.974-2.507l-.422-1.606s-8.847 5.09-21.999 2.233c-14.048-3.051-15.797-11.571-15.797-11.571l-.85 1.644zM97.37 78.963s1.832 1.561 3.36 3.656c1.527 2.096 1.85 3.724 1.85 3.724s1.177-2.035 1.145-3.706c-.032-1.672.084-2.952.084-2.952l1.451.065s.765 2.371.486 4.937c-.279 2.565-1.306 4.225-1.306 4.225l-1.636-2.073-1.609 2.454s-1.998-.822-3.656-5.052c-1.658-4.23-2.165-5.517-2.165-5.517l2.037-.004-.04.243z"/>
            <path fill="#FFF" d="M75.632 110.585a.945.945 0 1 1 1.805.558.945.945 0 0 1-1.805-.558M78.387 114.208a.944.944 0 1 1 1.805.558.944.944 0 0 1-1.805-.558M82.918 117.59a.945.945 0 1 1 1.805.557.945.945 0 0 1-1.805-.558M88.543 119.608a.944.944 0 1 1 1.805.557.944.944 0 0 1-1.805-.557M95.043 120.84a.944.944 0 1 1 1.805.557.944.944 0 0 1-1.805-.557M101.144 120.552a.944.944 0 1 1 1.804.557.944.944 0 0 1-1.804-.557M106.798 119.532a.944.944 0 1 1 1.805.557.944.944 0 0 1-1.805-.557M106.25 73.482l1.39-.097.293-1.051-5.149.006s.224 2.556 2.752 2.553c.901-.001 1.508-.327 1.917-.746l.176-.59-1.379-.075z"/>
            <path fill="#E58E63" d="M107.933 72.334l-.294 1.051-1.389.097 1.379.074-.176.591c.738-.755.83-1.814.83-1.814h-.35z"/>
            <path fill="#FFBE03" d="M96.005 52.11s-1.199.721-1.941 2.565c-.743 1.844-.89 3.204-.89 3.204l-.213.177s-1.842-1.404-.424-4.328c1.419-2.925 2.553-3.405 3.393-3.303.84.101.995 1.312.995 1.312l-.92.374z"/>
            <path fill="#F4BB82" d="M94.835 82.85s.68 7.07 6.36 11.147c5.68 4.078 14.406-1.91 14.406-1.91l2.07 2.162s-7.865 8.362-16.92 5.2c-9.056-3.161-11.226-11.94-11.309-16.515-.082-4.577 3.339-4.452 3.982-3.495.642.957 1.41 3.411 1.41 3.411"/>
            <path fill="#F4BB82" d="M117.076 91.304s.253.158 1.282-.248c1.029-.405 3.804-3.962 4.022-4.056.219-.093.613.063.624.593.01.53-.32.79-.458.904-.138.115.52-.249.645 0 .125.25-.187 1.036-.187 1.036s.215-.043.216.397c.002.44-.84 2.156-1.869 3.123-1.029.968-4.474 1.956-4.474 1.956l-.889-2.018 1.088-1.687z"/>
            <path fill="#E58E63" d="M100.522 126.851L94.06 128.9l-.104-3.417 6.566.388zM90.202 126.003l-7.266.376.408-3.39 7.136 1.97z"/>
        </g>
        <path fill="#16254F" d="M135.683 54.636l11.595-4.362c-.537-2.468-.806-4.508-.806-6.12 0-2.42-1.34-5.645-4.992-5.645s-7.095 1.613-7.9 5.644c-.538 2.688.163 6.182 2.103 10.483zM161.983 54.636l4.834-2.42c-1.624-7.354-3.505-10.849-5.643-10.482-2.138.367-1.868 4.668.809 12.902z"/>
    </g>
</svg>
